<?xml version="1.0" encoding="UTF-8"?>
<svg xmlns="http://www.w3.org/2000/svg" version="1.1" viewBox="0 0 176.7 146.2">
  <defs>
    <style>
      .cls-1, .cls-2, .cls-3, .cls-4 {
        stroke-width: 0px;
      }

      .cls-1, .cls-3 {
        fill: #000;
      }

      .cls-2 {
        fill: #fefdf3;
        opacity: .8;
      }

      .cls-2, .cls-5 {
        isolation: isolate;
      }

      .cls-5 {
        fill: none;
        stroke: #fefdf3;
        stroke-miterlimit: 10;
        stroke-width: .2px;
      }

      .cls-3 {
        fill-rule: evenodd;
      }

      .cls-4 {
        fill: #4000fd;
      }
    </style>
  </defs>
  <g id="Layer_1" data-name="Layer 1">
    <path class="cls-2" d="M58.9,133.8c55.9,16.3,75.1,10,82,.7,5.9-8,.3-14.8,6.4-36.1,7.1-24.7,18-27.1,19.3-45.3.1-1.4,1.6-27-13.3-37-14.7-9.9-27.5,7.4-61.7,6.2-29.1-1-38-14.2-58.8-7-9,3.1-23.1,11-23.6,21.2-.6,14.3,26.2,18.7,27.4,34.7,1.3,17.2-28.7,26.3-27.1,39.7.9,7.4,11.4,15.9,49.4,22.9Z"/>
    <path class="cls-1" d="M141.7,92.7c1.1,0,2-.9,2-2s-.9-2-2-2-2,.9-2,2,.9,2,2,2Z"/>
    <path class="cls-1" d="M114,84.7c1.1,0,2-.9,2-2s-.9-2-2-2-2,.9-2,2,.9,2,2,2Z"/>
    <path class="cls-1" d="M48.5,88.7c1.1,0,2-.9,2-2s-.9-2-2-2-2,.9-2,2,.9,2,2,2Z"/>
    <path class="cls-4" d="M44.4,69.5h.3c3,.4,6,0,8.9-.9"/>
    <path class="cls-3" d="M54.6,68.4c.2.5-.1,1.1-.6,1.3-3,1-6.2,1.3-9.3.9h-.3c-.5,0-.9-.6-.9-1.1,0-.5.6-.9,1.1-.9h.3c2.8.4,5.7,0,8.5-.8.5-.2,1.1.1,1.3.6Z"/>
    <path class="cls-3" d="M74.5,44.1c5.1-.4,10.1.9,14.4,3.7.5.3.6.9.3,1.4-.3.5-.9.6-1.4.3-3.9-2.6-8.5-3.7-13.1-3.4-4.6.4-9,2.3-12.4,5.4-3.4,3.1-5.7,7.3-6.5,11.9-.8,4.6,0,9.3,2.2,13.4,2.2,4.1,5.7,7.3,9.9,9.2,4.2,1.9,9,2.3,13.5,1.1,4.5-1.1,8.5-3.7,11.3-7.4,2.9-3.7,4.4-8.2,4.4-12.8s0-2-.2-2.9c0-.5.3-1.1.9-1.1.5,0,1.1.3,1.1.9.1,1.1.2,2.1.2,3.2,0,5.1-1.7,10-4.8,14-3.1,4-7.5,6.9-12.4,8.1-4.9,1.2-10.1.8-14.8-1.2-4.7-2.1-8.5-5.6-10.9-10.1-2.4-4.5-3.3-9.6-2.4-14.6.9-5,3.4-9.6,7.1-13,3.8-3.4,8.5-5.5,13.6-5.9Z"/>
    <path class="cls-3" d="M69.3,54.8c.3.5.2,1.1-.3,1.4-1.9,1.3-3.5,3.1-4.5,5.3-1,2.1-1.4,4.5-1.1,6.8.3,2.3,1.2,4.6,2.6,6.4,1.4,1.9,3.3,3.3,5.5,4.2,2.2.9,4.6,1.1,6.9.7,2.3-.4,4.5-1.4,6.3-3s3.1-3.5,3.8-5.8.8-4.6.3-6.9c-.1-.5.2-1.1.7-1.2.5-.1,1.1.2,1.2.7.6,2.6.5,5.4-.3,8-.8,2.6-2.4,4.9-4.4,6.7-2.1,1.8-4.6,3-7.2,3.4-2.7.5-5.4.2-8-.8-2.5-1-4.7-2.7-6.4-4.8-1.7-2.2-2.7-4.7-3-7.4-.3-2.7.1-5.4,1.3-7.9,1.1-2.5,2.9-4.6,5.2-6.1.5-.3,1.1-.2,1.4.3Z"/>
    <path class="cls-3" d="M127.1,14.5c.4-.4,1-.4,1.4,0,.4.4.4,1,0,1.4l-.7-.7-.7-.7ZM107.1,28.1h0c3.4,0,6.8-.8,9.9-2.2h0c.7-.3,1.8-1.2,2.9-2.1,1.2-1,2.5-2.2,3.8-3.3,1.3-1.2,2.5-2.3,3.4-3.1.4-.4.8-.8,1.1-1,.1-.1.2-.2.3-.3h.1q0-.1-.7-.8l-.7-.7h0s0,0,0,0c0,0-.2.2-.3.3-.2.2-.6.6-1,1-.9.8-2.1,2-3.3,3.1-1.3,1.2-2.6,2.3-3.7,3.3-1.2,1-2.1,1.6-2.5,1.8-2.8,1.3-5.9,2-9,2h-33c-2.9,0-5.8.6-8.5,1.8-2.7,1.2-5,3-7,5.2l-23.3,26.8c-.6.7-1,1.5-1.3,2.3-.3.9-.4,1.8-.3,2.7s.3,1.8.8,2.6c.4.8,1,1.5,1.7,2.1,0,0,0,0,0,0,1.4,1.1,3.1,1.6,4.9,1.4,1.7-.2,3.4-1,4.5-2.3l21.7-23.3c1.6-1.8,3.6-3.2,5.9-4.2,2.2-1,4.6-1.5,7-1.5h10.8c1.1,0,2.2.4,2.9,1.2.8.8,1.2,1.8,1.2,2.9s-.4,2.2-1.2,2.9c-.8.8-1.8,1.2-2.9,1.2h-11.6c-1.9,0-3.8.4-5.6,1.1h0c-4.7,2-6.3,5.6-5.7,8.9.6,3.2,3.3,5.8,6.9,5.8h38.3c3.4,0,6.8-.7,9.9-2,3.1-1.3,6-3.2,8.4-5.6,0,0,0-.1.1-.2l7.3-11.2,9.1-5.3c.5-.3.6-.9.4-1.4-.3-.5-.9-.6-1.4-.4l-9.3,5.4c-.1,0-.3.2-.3.3l-7.4,11.3c-2.2,2.2-4.8,3.9-7.7,5.1-2.9,1.2-6,1.8-9.1,1.8h-38.3c-2.6,0-4.5-1.9-5-4.1-.4-2.2.6-4.9,4.6-6.6,1.5-.6,3.2-1,4.8-.9h11.6c1.6,0,3.2-.6,4.4-1.8,1.2-1.2,1.8-2.7,1.8-4.4s-.6-3.2-1.8-4.4c-1.2-1.2-2.7-1.8-4.4-1.8h-10.8c-2.7,0-5.4.6-7.8,1.6-2.5,1.1-4.7,2.6-6.5,4.6l-21.7,23.3h0c-.8.9-2,1.5-3.2,1.6-1.2.1-2.5-.2-3.5-1-.5-.4-.9-.9-1.2-1.5-.3-.6-.5-1.2-.5-1.8,0-.6,0-1.3.2-1.9.2-.6.5-1.2.9-1.6L107.1,28.1ZM36.7,61.3l23.3-26.8c1.7-2,3.9-3.6,6.3-4.7,2.4-1.1,5-1.7,7.7-1.7h33L36.7,61.3Z"/>
    <path class="cls-3" d="M55.6,96.1c.2-.3.5-.5.8-.5h65.5c.3,0,.7.2.8.5l19.8,31.8c.3.5.2,1.1-.3,1.4-.5.3-1.1.2-1.4-.3l-19.6-31.3H57l-19.6,31.3c-.3.5-.9.6-1.4.3s-.6-.9-.3-1.4l19.8-31.8Z"/>
    <path class="cls-3" d="M71.3,109.6c-1.1,0-2,.9-2,2s.9,2,2,2h35.7c1.1,0,2-.9,2-2s-.9-2-2-2h-35.7ZM67.3,111.5c0-2.2,1.8-4,4-4h35.7c2.2,0,4,1.8,4,4s-1.8,4-4,4h-35.7c-2.2,0-4-1.8-4-4Z"/>
    <path class="cls-3" d="M133.8,65.9c.6,0,1,.4,1,1v7.9c0,.6-.4,1-1,1s-1-.4-1-1v-7.9c0-.6.4-1,1-1Z"/>
    <path class="cls-3" d="M128.8,70.9c0-.6.4-1,1-1h7.9c.6,0,1,.4,1,1s-.4,1-1,1h-7.9c-.6,0-1-.4-1-1Z"/>
    <path class="cls-3" d="M44.5,24.2c.6,0,1,.4,1,1v7.9c0,.6-.4,1-1,1s-1-.4-1-1v-7.9c0-.6.4-1,1-1Z"/>
    <path class="cls-3" d="M39.5,29.2c0-.6.4-1,1-1h7.9c.6,0,1,.4,1,1s-.4,1-1,1h-7.9c-.6,0-1-.4-1-1Z"/>
  </g>
  <g id="Layer_2" data-name="Layer 2">
    <line class="cls-5" x1="37" y1="61.3" x2="59.5" y2="50.6"/>
    <line class="cls-5" x1="86.7" y1="37.7" x2="106.6" y2="28.3"/>
    <line class="cls-5" x1="73.2" y1="44.1" x2="82.1" y2="40"/>
  </g>
</svg>