<?xml version="1.0" encoding="utf-8"?>
<!-- Generator: Adobe Illustrator 25.2.1, SVG Export Plug-In . SVG Version: 6.00 Build 0)  -->
<svg version="1.1" id="Layer_1" xmlns="http://www.w3.org/2000/svg" xmlns:xlink="http://www.w3.org/1999/xlink" x="0px" y="0px"
	 viewBox="0 0 595.3 841.9" style="enable-background:new 0 0 595.3 841.9;" xml:space="preserve">
<style type="text/css">
	.st0{opacity:0.78;fill-rule:evenodd;clip-rule:evenodd;fill:#CEF3FF;enable-background:new    ;}
	.st1{clip-path:url(#SVGID_2_);}
	.st2{fill:none;stroke:#000000;stroke-width:3.2474;stroke-linecap:round;stroke-linejoin:round;stroke-miterlimit:10;}
	.st3{stroke:#000000;stroke-width:3.2474;stroke-linecap:round;stroke-linejoin:round;stroke-miterlimit:10;}
	.st4{stroke:#000000;stroke-width:3.2474;stroke-miterlimit:10;}
</style>
<path class="st0" d="M485.9,434.7c26.3-10.7,39.4-24.6,45.4-38.6c6.3-14.4,3.8-25.8,0.3-42.4c-3.5-16.5-8.1-38.1-6.3-72.8
	c2-38.5,10.3-62.1,17.4-82.5c7.8-22.2,14.2-40.5,9.6-70.2c-0.7-4.3-14.1-83.7-66.6-103.9C458.5,14,438.2,26.1,409.9,43
	c-25.8,15.3-58.2,34.6-108.4,44.5c-38.8,7.6-67.7,5.6-92.7,3.8C176.1,89,150,87.1,116.7,108c-25.3,15.9-63,50.1-57.2,81.8
	c4.1,22,27.1,31.7,51.1,41.7c24.3,10.2,49.5,20.7,57.1,44.9c8.5,27.3-11.1,53.8-29.5,78.7c-16.6,22.4-32.1,43.4-25.2,62.4
	c0.7,1.9,1.6,3.7,2.7,5.5c-27.3,10.3-59.4,29.8-62.4,56.3c-2.5,22.2,16.7,38.2,36.7,54.8c20.2,16.8,41.3,34.3,41.5,59.6
	c0.2,28.6-26.4,48.2-51.2,66.7c-22.4,16.6-43.4,32.1-42.3,52.3C39.1,736,70,765.1,187.5,795c171.4,62.9,233,47.2,256.8,19.4
	c10.2-11.9,11.2-23.6,12.7-40.5c1.5-16.8,3.4-38.8,15.2-71.5c13.2-36.3,28-56.4,40.7-73.8c13.9-19,25.4-34.6,29.7-64.3
	c0.6-4.3,11-84.2-33.3-118.8C501.6,439.6,493.9,436.3,485.9,434.7z"/>
<g>
	<defs>
		<rect id="SVGID_1_" x="13.3" y="-19.5" width="574.8" height="844.3"/>
	</defs>
	<clipPath id="SVGID_2_">
		<use xlink:href="#SVGID_1_"  style="overflow:visible;"/>
	</clipPath>
	<g class="st1">
		<path class="st2" d="M329.9,93l1.7-48.6l99.2-8.4"/>
		<path class="st2" d="M320.1,91.9c-2.7-11.3-5-21.2-4.7-22.1"/>
		<path class="st2" d="M79,342.7c6-10.3,111.3-101.2,111.3-101.2"/>
		<path class="st2" d="M106.1,270.2c-14.1-0.4-24.6-14.8-21.8-27.6c3.1-14.1,21.2-21.4,33.5-15.1c7.6,3.9,12.5,12.8,11.7,21.8
			C128.6,261,118,270.6,106.1,270.2z"/>
		<path class="st2" d="M155.8,348.4c-9.4-5.9-15-17.4-12.7-28.1c3.6-16.2,24.5-24.7,38.7-17.4c7.5,3.8,12.7,11.8,13.5,20.4"/>
		<path class="st2" d="M322.9,603.4c0.1,0.7,0.4,1.3,0.8,2.1c7.2,11.9,27.5,31.8,26,46.6c-1.4,14.8-31,107.6-54.9,115.2
			c-23.8,7.6-52.4-16.2-70.4-4c-18,12.3-8.7,31.8-8.7,31.8"/>
		<path class="st2" d="M379.9,610.2c0.2,0.2,0.3,0.4,0.4,0.5c3.2,3.2,15.4,30.3,14.4,36.2c-1.1,5.9-50.1,108-53.8,118.1
			c-3.7,10.1,0,21.3-10.6,31.4c-5.9,0.5-116.1-0.5-116.1-0.5"/>
		<path class="st2" d="M242.7,795.4c-2-6.5,0.6-25,28.7-18.8"/>
		<path class="st2" d="M308.4,621.8c0,0-17.7-22.7-28.1-35.7"/>
		<path class="st2" d="M320.2,621.5c-1.2,0-90.7,2.4-101.6,2.7c-15.1,3.8-57.3,40.2-41.1,76.5c16.3,36.3,35.7,27.2,43.4,1.5
			c7.7-25.7,19.2-48.1,19.5-49"/>
		<path class="st2" d="M236.7,662.4c7,0,92,2.7,102.3-6.7c10.2-9.5,9.2-14.9,9.2-14.9"/>
		<path class="st2" d="M203.1,665.7c-2.5,9.6-14.1,34.8,17.6,36.8"/>
		<path class="st2" d="M257.5,215.6c-6.8-11.2-18.4-29.6-63.7-48.1c-45.3-18.4-71.3-30.8-78.2-46.9c-6.8-16,5.6-6.4,5.6-6.4
			s28.1,20,60.1,29.6c32.1,9.6,97,23.2,97,23.2"/>
		<path class="st2" d="M113.8,111.6c0.4-8,7.5-22.6,54.6-1.5c0,0,15.8,9.3,50.3,9.6c34.6,0.3,45.4,9.8,45.4,9.8"/>
		<path class="st2" d="M294.9,88.2C282.4,68.4,246.2,50,213,72.4c-33.2,22.4,6.1,43.9,6.6,44.8"/>
		<path class="st2" d="M226.4,444.2c-21.9-3.9-35.3-10.1-43.6-16.7c-7.7-6.1-11.1-12.6-12.8-18c-3.7-11.2,23.2-27.4,51.6-40.6
			c28.5-13.2,51.1-38.9,66.1-52.3c15.1-13.4,14.2-22.2,19.3-23.3s3.1,2,7.3-2.7c4.2-4.8,4.8-7,8.5-8.1c3.7-1.1,7.9,1.5,9.4-1.1
			c1.5-2.6,3.9-10.1,8.6-9.9c4.8,0.2,5.7-0.9,9.4-5.9c3.7-5,7.3-2.6,13.1-1.6c5.7,0.9,8.1-4.6,9.6-7.3c1.5-2.7-2.2-7.9,3.9-8.4
			c6.1-0.5,6.1-2.6,5.7-6.6c-0.4-4,0.4-6.6,6.6-6.8c6.2-0.2,0.4-11.6,0.5-14.2c0.2-2.6,6.2,0.7,8.1-1.5c1.8-2.2-1.8-21.1,0.5-27.9
			c2.4-6.8,9.6-9.4,9.6-9.4s10.8-43.9-34.7-72.7S273.4,94.4,263.1,99"/>
		<path class="st2" d="M325.5,604.4c-0.9-0.4-1.7-0.7-2.6-1"/>
		<path class="st2" d="M322.9,603.4c-2.1-0.9-4.1-1.7-5.7-2.5c-4.7-2.6-6.5-3.5-6.5-3.5s-58.1-19.2-121-56.5
			C126.8,503.6,49.5,404.7,134,360.2c84.6-44.5,116.6-74.1,98.6-139.4c0,0-8.8-24.8-8.8-32.4"/>
		<path class="st2" d="M183.2,427.6c9.7,1.9,24.5-1.9,33.1-12.5c11.3-16.8,63.2-66.4,165.6-46.9C484.3,387.8,541.6,436,528,554.1
			c-5.7,42.6-8.7,53.5-18.8,51.2c-10.1-2.2-12.8-13.1-22.5,3.8c-9.7,16.9-16.1,12.4-25.1,7.9c-9-4.5-10.5,12.8-15.7,13.5
			c-5.3,0.7-13.5-14.6-19.9-15.8c-6.4-1.1-3.4,8.6-11.6,9c-8.2,0.4-7.9-21-10.9-20.6c-3.5,0.4-4.9,5.2-9.2,4
			c-4.3-1.2-12.4-3.9-13.8-2c-0.5,0.7-1.3,1.3-2.4,1.7"/>
		<path class="st2" d="M247.2,511c8.1,5.8,15.7,11,20.3,3c4.6-8.1,12.2,2.5,16.8,5.1c4.6,2.5,14.7-4.6,19.1-0.2
			c4.4,4.4,18.6,8.7,18.9,6c0.2-2.8,18.6,15.2,30.6,21.4c12,6.2,22.8,15,32,5.1c9.2-9.9,21.2,1.6,27.4,6.9
			c6.2,5.3,20.3,3.7,22.8-8.3c2.5-12,10.1-10.1,21.4-8.5c11.3,1.6,6.7-9.2,13.8-10.1c7.1-0.9,7.6,5.3,12.9,3.2
			c5.3-2.1,1.2-9.9,9.4-9.9c8.3,0,10.6,6.4,17,4.8c6.5-1.6,11.3-8.5,14.7-8.1c3.5,0.4,5.3,0.2,5.3,0.2"/>
		<path class="st2" d="M508.4,549.3c0.9,12.3,2.3,41.5,9.5,33.8c7.2-7.6,10-26.2,10-26.2"/>
		<path class="st2" d="M359.4,463.2c8,8.8,23.7,30.1,33.8,22.4c10.2-7.7,14.4-16,29.6-6.1c15.2,9.9,26,8.8,33.8-0.8
			c7.8-9.6,24,6.1,23.5-5.3c-0.5-11.4,2.4-7,12.5-4.1c10.2,3,17.1,1.6,17.7-3.4"/>
		<path class="st2" d="M288.6,147.5c10.8,9.8,14.9,37.1,14.5,37.1"/>
		<path class="st3" d="M214.4,139.9c8,5.1,17,2.8,20.8,1.9c3.4-0.8,9.1-2.3,9.3-4.9c0.3-3.3-8.3-6.8-14.5-8.2
			c-9.3-2.1-21.3-1.1-22.4,3C206.8,135.1,213.6,139.4,214.4,139.9z"/>
		<path class="st3" d="M367.5,155.9c-0.5,1.8-1.3,3.6-2.3,5.1c-1.3-1.4-5.8-8.7-16.8-14.6c-12.2-6.5-32.3-2.5-44.4,0.7
			c0.7-14.2,16.3-26.5,31.2-26.6C354.4,120.5,371.5,140.5,367.5,155.9z"/>
		<path class="st2" d="M365.2,161.1c-6,9.5-20.4,14.4-32.3,13c-12.2-1.4-27.7-10.2-28.9-24.1c-0.1-0.9-0.1-1.9,0-2.8
			c12-3.2,32.2-7.2,44.4-0.7C359.4,152.4,363.9,159.7,365.2,161.1z"/>
		<path class="st2" d="M365.6,161.3c-0.1,0-0.2-0.1-0.4-0.2"/>
		<path class="st2" d="M304,147.2C304,147.2,304,147.2,304,147.2"/>
		<path class="st3" d="M222.9,182.5c0,0,6.9,30.4,11,38.1c4.1,7.7,21.5-8.7,15.8-14.1c-5.6-5.5-11.5-14.4-14.7-16.6
			C231.9,187.7,222.9,182.5,222.9,182.5z"/>
		<path class="st3" d="M264.3,128c0-0.4-29.8-11.7-32-13.6c-2.2-1.9-16.4-8.9-17.4-6.2c-1,2.7-1.1,4.7,1.2,6.3
			c2.3,1.6,3.2,4.5,7.3,4.7c4.1,0.2,18.3,1.8,23.6,3.5C252.4,124.5,264.3,128,264.3,128z"/>
		<path class="st3" d="M263,97.6c4.1-11.5,13.5-16.4,20.3-14.3c6.8,2,9.6,2.7,12.5,5.9c2.9,3.3-1.2,2.7-2,2.9
			c-0.8,0.2-7.4-1.4-14.1,1.2C272.8,96,263,97.6,263,97.6z"/>
		<path class="st2" d="M122.2,752.9l21.5-48.2"/>
		<path d="M110.7,723.8c0,0,40.5,16.4,41.9,15.5L110.7,723.8z"/>
		<path class="st2" d="M110.7,723.8c0,0,40.5,16.4,41.9,15.5"/>
		<path class="st2" d="M480.5,211.1l-1.8,34.5"/>
		<path class="st2" d="M457,227.2l45.2,2.4"/>
		<path class="st2" d="M351.4,321.9c0,0,58.9-32.2,57.7-30.6"/>
		<path class="st2" d="M375.6,343.3c-0.1,0.7,5.9-20.4-2.2-31.6"/>
		<path class="st2" d="M407.6,328.7c0.6,0.4-18.7-10.1-20.9-23.8"/>
		<path class="st2" d="M472,401.2c7.5-11.1,13.9-21.9,13.3-26c-1.5-9.6-39.8-44.2-39.8-44.2l118.8-12.5"/>
		<path class="st2" d="M499.7,425.6c30-3.4,62.9-7.2,65.3-7.6"/>
		<path class="st2" d="M89.3,559.1c3.8-1.3,78-8.4,111.8-11.6"/>
		<path class="st2" d="M157.5,517.3L91,524.5"/>
		<path class="st2" d="M197.2,35.3c-13.6-14.5-56.3-4.3-58.9,15.7c-2.6,20-20-2.6-20-2.6s6.2,32.4-13,21.6
			c-17.8-10-48.9,25.8-37.5,40.7c-0.2,0.5-0.3,0.8-0.3,0.8"/>
		<path class="st2" d="M93.2,629.1l35.6-0.5"/>
		<path class="st2" d="M411.7,758.3c-20.4-28.6,15.8-77.1,34.5-73.2"/>
		<path class="st2" d="M437.1,768.5c35-2.5,49.4-61.2,34.5-73.2"/>
		<path class="st2" d="M489.6,27.1L448,115.6l107,46.6"/>
		<path class="st2" d="M486.2,130.9c0,0,13-35.6-23.7-43.9"/>
		<path class="st2" d="M38,469.4l-21.5,0.8l-1.7-60.6l16.9,0.4"/>
		<path class="st2" d="M49.4,409l21.5-0.7l1.4,60.6l-16.9-0.5"/>
		<path class="st3" d="M194.7,435c0.8,0.4,15.9,7,20.9,6.1c4.9-1,6.6-24.6-0.2-22.5c-6.8,2.1-14,8.5-18.6,9.1
			c-4.5,0.6-9.8,1.1-9.8,1.1L194.7,435z"/>
		<path d="M294.1,604c3.8,2.3,24,7,27.8,7.9c3.8,0.8,5.5,0,5.5,0s-1.1-5.9-7-9.1c-5.9-3.2-38.3-14-38.3-14L294.1,604z"/>
		<path class="st4" d="M383.6,617.6c0,0-10.8,4.5-17.6,5.3c-6.8,0.8-30.2-1.1-33.4-5.3l-7.1-13.2c3.6,1.4,7.2,2.8,9.7,4.3
			c4.5,2.7,5.7,2.4,6.5-0.6c0.8-3,3.3-5.5,5.7-4.7c2.4,0.8,7.5,5.9,11.6,4.3c4.1-1.6,6.9-5.5,11.2-2.2c2.9,2.2,5.8,2.2,7.9,1.3
			c0.7,1.4,1.3,2.6,1.8,3.3c0,0,0,0,0,0C381.9,614.2,383.6,617.6,383.6,617.6z"/>
		<path class="st2" d="M379.8,610.2c-0.6-1.1-1.1-2.3-1.7-3.4"/>
		<path class="st4" d="M215.2,788.7c15.6,3,49.5,6.8,68.1,4.8c15.6-1.6,36.7,0.7,42.1,0c5.4-0.7,7.2,0.2,7.2,0.2s3,3.8-13.8,4
			c-16.8,0.2-102.6-1.8-102.6-1.8L215.2,788.7z"/>
		<path class="st4" d="M240.2,656.9c0,0,14.6-0.7,28.6,0.7c14,1.5,38.8,3.2,38.8,3.2l-68.2,1.2L240.2,656.9z"/>
	</g>
</g>
</svg>
