<svg width="561" height="820" viewBox="0 0 561 820" fill="none" xmlns="http://www.w3.org/2000/svg">
<path opacity="0.78" fill-rule="evenodd" clip-rule="evenodd" d="M447.602 428.615C471.941 418.725 483.96 405.897 489.581 392.982C495.37 379.672 493.122 369.129 489.857 353.821C486.609 338.589 482.355 318.64 484.011 286.552C485.85 250.94 493.489 229.141 500.072 210.357C507.264 189.834 513.195 172.911 508.919 145.503C508.302 141.495 495.918 68.1545 447.422 49.5547C422.312 39.9266 403.523 51.1039 377.325 66.6882C353.505 80.8584 323.56 98.6721 277.169 107.802C241.293 114.861 214.648 112.973 191.559 111.336C161.352 109.195 137.231 107.486 106.486 126.81C83.1579 141.473 48.2782 173.116 53.6792 202.373C57.4273 222.703 78.7231 231.621 100.898 240.908C123.327 250.3 146.655 260.07 153.634 282.406C161.517 307.611 143.36 332.143 126.357 355.117C111.051 375.798 96.6787 395.217 103.078 412.728C103.703 414.441 104.525 416.133 105.576 417.792C80.3559 427.346 50.69 445.315 47.8923 469.78C45.5387 490.318 63.3008 505.068 81.7961 520.426C100.503 535.961 119.961 552.118 120.111 575.518C120.288 601.927 95.7578 620.086 72.7857 637.091C52.106 652.399 32.6886 666.774 33.6936 685.39C34.8459 706.934 63.3301 733.785 171.893 761.437C330.267 819.522 387.187 805.064 409.11 779.399C418.534 768.361 419.463 757.621 420.812 742.027C422.154 726.511 423.913 706.189 434.87 675.985C447.03 642.462 460.704 623.845 472.486 607.803C485.359 590.276 495.974 575.823 499.891 548.361C500.471 544.348 510.05 470.589 469.101 438.635C462.041 433.126 454.977 430.029 447.602 428.615Z" fill="#CEF3FF"/>
<g clip-path="url(#clip0_131_5)">
<path d="M303.469 112.947L305.006 68.0789L396.622 60.29" stroke="black" stroke-width="3" stroke-miterlimit="10" stroke-linecap="round" stroke-linejoin="round"/>
<path d="M294.383 111.894C291.861 101.428 289.787 92.2746 290.064 91.4629" stroke="black" stroke-width="3" stroke-miterlimit="10" stroke-linecap="round" stroke-linejoin="round"/>
<path d="M71.7188 343.573C77.2817 334.092 174.529 250.089 174.529 250.089" stroke="black" stroke-width="3" stroke-miterlimit="10" stroke-linecap="round" stroke-linejoin="round"/>
<path d="M96.755 276.617C83.7461 276.202 74.0196 262.921 76.6283 251.074C79.4961 238.069 96.2367 231.334 107.604 237.137C114.67 240.746 119.18 248.984 118.437 257.257C117.469 268.102 107.691 276.962 96.755 276.617Z" stroke="black" stroke-width="3" stroke-miterlimit="10" stroke-linecap="round" stroke-linejoin="round"/>
<path d="M142.584 348.909C133.911 343.486 128.728 332.796 130.888 322.987C134.188 307.979 153.52 300.207 166.632 306.908C173.525 310.431 178.328 317.788 179.106 325.767" stroke="black" stroke-width="3" stroke-miterlimit="10" stroke-linecap="round" stroke-linejoin="round"/>
<path d="M296.98 584.408C297.084 585.013 297.343 585.652 297.758 586.342C304.426 597.344 323.119 615.685 321.771 629.363C320.441 643.041 293.093 728.753 271.066 735.765C249.039 742.759 222.693 720.757 206.004 732.086C189.332 743.433 198.005 761.446 198.005 761.446" stroke="black" stroke-width="3" stroke-miterlimit="10" stroke-linecap="round" stroke-linejoin="round"/>
<path d="M349.623 590.764C349.762 590.954 349.882 591.109 350.003 591.23C352.958 594.183 364.274 619.26 363.289 624.665C362.304 630.071 317.04 724.47 313.602 733.813C310.165 743.157 313.602 753.484 303.772 762.828C298.365 763.328 196.539 762.344 196.539 762.344" stroke="black" stroke-width="3" stroke-miterlimit="10" stroke-linecap="round" stroke-linejoin="round"/>
<path d="M222.869 761.843C221.037 755.799 223.387 738.736 249.405 744.521" stroke="black" stroke-width="3" stroke-miterlimit="10" stroke-linecap="round" stroke-linejoin="round"/>
<path d="M283.603 601.47C283.603 601.47 267.226 580.47 257.672 568.467" stroke="black" stroke-width="3" stroke-miterlimit="10" stroke-linecap="round" stroke-linejoin="round"/>
<path d="M294.521 601.195C293.433 601.195 210.749 603.371 200.642 603.648C186.718 607.188 147.708 640.744 162.704 674.3C177.717 707.857 195.718 699.394 202.819 675.665C209.919 651.935 220.562 631.194 220.821 630.382" stroke="black" stroke-width="3" stroke-miterlimit="10" stroke-linecap="round" stroke-linejoin="round"/>
<path d="M217.336 638.913C223.832 638.913 302.369 641.452 311.802 632.679C321.218 623.906 320.337 618.932 320.337 618.932" stroke="black" stroke-width="3" stroke-miterlimit="10" stroke-linecap="round" stroke-linejoin="round"/>
<path d="M186.326 642.021C184.028 650.933 173.334 674.213 202.618 675.992" stroke="black" stroke-width="3" stroke-miterlimit="10" stroke-linecap="round" stroke-linejoin="round"/>
<path d="M236.542 226.188C230.254 215.826 219.508 198.797 177.682 181.786C135.857 164.775 111.791 153.29 105.485 138.49C99.1968 123.689 110.668 132.566 110.668 132.566C110.668 132.566 136.582 151.062 166.194 159.957C195.805 168.851 255.788 181.424 255.788 181.424" stroke="black" stroke-width="3" stroke-miterlimit="10" stroke-linecap="round" stroke-linejoin="round"/>
<path d="M103.797 130.148C104.125 122.756 110.759 109.285 154.226 128.749C154.226 128.749 168.807 137.315 200.734 137.591C232.66 137.867 242.663 146.606 242.663 146.606" stroke="black" stroke-width="3" stroke-miterlimit="10" stroke-linecap="round" stroke-linejoin="round"/>
<path d="M271.13 108.491C259.59 90.1668 226.143 73.1901 195.426 93.8972C164.709 114.604 201.023 134.448 201.542 135.294" stroke="black" stroke-width="3" stroke-miterlimit="10" stroke-linecap="round" stroke-linejoin="round"/>
<path d="M207.83 437.335C187.6 433.725 175.248 428.026 167.577 421.929C160.442 416.265 157.349 410.255 155.725 405.264C152.339 394.919 177.113 379.98 203.425 367.77C229.737 355.56 250.606 331.796 264.531 319.413C278.455 307.03 277.609 298.879 282.36 297.86C287.111 296.841 285.245 299.725 289.149 295.321C293.054 290.917 293.555 288.879 296.958 287.86C300.344 286.841 304.249 289.225 305.614 286.841C306.978 284.458 309.173 277.515 313.595 277.671C318.018 277.826 318.864 276.824 322.251 272.248C325.637 267.671 329.04 269.865 334.309 270.728C339.579 271.574 341.773 266.48 343.138 263.941C344.502 261.402 341.099 256.653 346.696 256.135C352.294 255.634 352.294 253.751 351.966 250.021C351.637 246.291 352.311 243.907 358.081 243.735C363.852 243.562 358.427 233.044 358.582 230.661C358.755 228.278 364.353 231.335 366.046 229.297C367.739 227.259 364.353 209.781 366.547 203.512C368.758 197.226 375.375 194.86 375.375 194.86C375.375 194.86 385.395 154.309 343.293 127.661C301.191 101.013 251.297 114.259 241.795 118.491" stroke="black" stroke-width="3" stroke-miterlimit="10" stroke-linecap="round" stroke-linejoin="round"/>
<path d="M299.378 585.358C298.566 585.03 297.771 584.719 296.977 584.408" stroke="black" stroke-width="3" stroke-miterlimit="10" stroke-linecap="round" stroke-linejoin="round"/>
<path d="M296.98 584.408C295.011 583.614 293.179 582.837 291.745 582.06C287.375 579.694 285.785 578.865 285.785 578.865C285.785 578.865 232.108 561.111 173.991 526.691C115.857 492.271 44.4196 400.86 122.525 359.791C200.648 318.705 230.26 291.314 213.605 230.989C213.605 230.989 205.451 208.054 205.451 201.025" stroke="black" stroke-width="3" stroke-miterlimit="10" stroke-linecap="round" stroke-linejoin="round"/>
<path d="M167.906 422.067C176.855 423.863 190.538 420.34 198.52 410.479C208.937 394.988 256.93 349.1 351.535 367.182C446.139 385.264 499.004 429.753 486.479 538.935C481.227 578.312 478.463 588.363 469.099 586.273C459.753 584.201 457.317 574.149 448.299 589.745C439.298 605.34 433.407 601.177 425.08 597.015C416.77 592.87 415.388 608.794 410.533 609.502C405.678 610.193 398.042 595.979 392.151 594.943C386.26 593.907 389.041 602.904 381.405 603.25C373.787 603.595 374.132 583.855 371.368 584.201C368.154 584.598 366.876 588.967 362.868 587.879C358.86 586.791 351.414 584.235 350.135 586.049C349.704 586.67 348.943 587.258 347.959 587.638" stroke="black" stroke-width="3" stroke-miterlimit="10" stroke-linecap="round" stroke-linejoin="round"/>
<path d="M227.109 499.075C234.555 504.394 241.57 509.282 245.819 501.838C250.069 494.395 257.084 504.17 261.334 506.519C265.583 508.85 274.947 502.27 278.972 506.311C283.015 510.353 296.197 514.394 296.404 511.838C296.611 509.282 313.629 525.861 324.685 531.612C335.742 537.346 345.728 545.429 354.245 536.293C362.745 527.157 373.801 537.778 379.554 542.665C385.29 547.553 398.265 546.068 400.597 535.015C402.929 523.962 409.961 525.654 420.378 527.157C430.796 528.642 426.546 518.66 433.128 517.796C439.727 516.95 440.142 522.684 445.031 520.767C449.92 518.85 446.102 511.631 453.756 511.631C461.409 511.631 463.534 517.589 469.494 516.086C475.455 514.601 479.912 508.228 483.108 508.643C486.304 509.057 487.997 508.85 487.997 508.85" stroke="black" stroke-width="3" stroke-miterlimit="10" stroke-linecap="round" stroke-linejoin="round"/>
<path d="M468.336 534.445C469.2 545.792 470.478 572.751 477.112 565.687C483.746 558.624 486.32 541.509 486.32 541.509" stroke="black" stroke-width="3" stroke-miterlimit="10" stroke-linecap="round" stroke-linejoin="round"/>
<path d="M330.758 454.898C338.135 462.998 352.612 482.669 362.01 475.588C371.409 468.507 375.33 460.839 389.359 469.941C403.404 479.06 413.39 478.041 420.611 469.216C427.833 460.39 442.759 474.863 442.327 464.293C441.896 453.724 444.504 457.783 453.902 460.529C463.318 463.275 469.676 461.979 470.263 457.351" stroke="black" stroke-width="3" stroke-miterlimit="10" stroke-linecap="round" stroke-linejoin="round"/>
<path d="M265.266 163.307C275.217 172.322 279.069 197.536 278.672 197.536" stroke="black" stroke-width="3" stroke-miterlimit="10" stroke-linecap="round" stroke-linejoin="round"/>
<path d="M196.778 156.278C204.207 160.958 212.499 158.886 216.024 158.005C219.133 157.228 224.437 155.898 224.644 153.497C224.903 150.475 216.974 147.211 211.238 145.933C202.669 144.033 191.526 144.914 190.541 148.713C189.729 151.822 196 155.794 196.778 156.278Z" fill="black" stroke="black" stroke-width="3" stroke-miterlimit="10" stroke-linecap="round" stroke-linejoin="round"/>
<path d="M338.182 171.044C337.733 172.737 337.025 174.326 336.092 175.793C334.848 174.498 330.719 167.763 320.543 162.34C309.262 156.33 290.673 160.06 279.547 162.979C280.221 149.819 294.629 138.455 308.415 138.386C326.089 138.3 341.931 156.796 338.182 171.044Z" fill="black" stroke="black" stroke-width="3" stroke-miterlimit="10" stroke-linecap="round" stroke-linejoin="round"/>
<path d="M336.091 175.793C330.545 184.583 317.242 189.125 306.237 187.83C294.922 186.518 280.686 178.435 279.58 165.569C279.511 164.705 279.494 163.842 279.546 162.978C290.672 160.059 309.261 156.329 320.542 162.339C330.718 167.762 334.847 174.497 336.091 175.793Z" stroke="black" stroke-width="3" stroke-miterlimit="10" stroke-linecap="round" stroke-linejoin="round"/>
<path d="M336.422 176.017C336.353 176.017 336.249 175.931 336.094 175.793" stroke="black" stroke-width="3" stroke-miterlimit="10" stroke-linecap="round" stroke-linejoin="round"/>
<path d="M279.546 162.979C279.512 162.979 279.495 162.996 279.461 162.996" stroke="black" stroke-width="3" stroke-miterlimit="10" stroke-linecap="round" stroke-linejoin="round"/>
<path d="M204.609 195.617C204.609 195.617 211.023 223.735 214.772 230.833C218.538 237.931 234.622 222.82 229.405 217.777C224.188 212.734 218.746 204.496 215.826 202.424C212.889 200.369 204.609 195.617 204.609 195.617Z" fill="black" stroke="black" stroke-width="3" stroke-miterlimit="10" stroke-linecap="round" stroke-linejoin="round"/>
<path d="M242.87 145.276C242.87 144.93 215.332 134.499 213.31 132.703C211.289 130.907 198.142 124.5 197.243 126.969C196.345 129.439 196.224 131.356 198.366 132.807C200.509 134.274 201.286 136.969 205.104 137.193C208.922 137.418 221.966 138.886 226.907 140.457C231.865 142.029 242.87 145.276 242.87 145.276Z" fill="black" stroke="black" stroke-width="3" stroke-miterlimit="10" stroke-linecap="round" stroke-linejoin="round"/>
<path d="M241.672 117.178C245.455 106.591 254.145 102.067 260.382 103.949C266.619 105.832 269.262 106.401 271.905 109.424C274.548 112.446 270.765 111.876 270.022 112.066C269.262 112.256 263.215 110.736 256.979 113.206C250.742 115.676 241.672 117.178 241.672 117.178Z" fill="black" stroke="black" stroke-width="3" stroke-miterlimit="10" stroke-linecap="round" stroke-linejoin="round"/>
<path d="M111.562 722.57L131.447 678.082" stroke="black" stroke-width="3" stroke-miterlimit="10" stroke-linecap="round" stroke-linejoin="round"/>
<path d="M100.977 695.664C100.977 695.664 138.38 710.845 139.675 709.947Z" fill="black"/>
<path d="M100.977 695.664C100.977 695.664 138.38 710.845 139.675 709.947" stroke="black" stroke-width="3" stroke-miterlimit="10" stroke-linecap="round" stroke-linejoin="round"/>
<path d="M442.607 222.061L440.914 253.924" stroke="black" stroke-width="3" stroke-miterlimit="10" stroke-linecap="round" stroke-linejoin="round"/>
<path d="M420.875 236.878L462.649 239.106" stroke="black" stroke-width="3" stroke-miterlimit="10" stroke-linecap="round" stroke-linejoin="round"/>
<path d="M323.305 324.387C323.305 324.387 377.742 294.63 376.602 296.15" stroke="black" stroke-width="3" stroke-miterlimit="10" stroke-linecap="round" stroke-linejoin="round"/>
<path d="M345.706 344.195C345.585 344.869 351.183 325.319 343.633 314.991" stroke="black" stroke-width="3" stroke-miterlimit="10" stroke-linecap="round" stroke-linejoin="round"/>
<path d="M375.263 330.69C375.833 331.07 357.97 321.33 355.914 308.723" stroke="black" stroke-width="3" stroke-miterlimit="10" stroke-linecap="round" stroke-linejoin="round"/>
<path d="M434.76 397.682C441.705 387.458 447.597 377.441 447.009 373.659C445.644 364.799 410.211 332.78 410.211 332.78L519.932 321.209" stroke="black" stroke-width="3" stroke-miterlimit="10" stroke-linecap="round" stroke-linejoin="round"/>
<path d="M460.289 420.202C488.017 417.041 518.406 413.536 520.6 413.173" stroke="black" stroke-width="3" stroke-miterlimit="10" stroke-linecap="round" stroke-linejoin="round"/>
<path d="M81.2188 543.511C84.7258 542.337 153.243 535.757 184.53 532.804" stroke="black" stroke-width="3" stroke-miterlimit="10" stroke-linecap="round" stroke-linejoin="round"/>
<path d="M144.238 504.93L82.7344 511.579" stroke="black" stroke-width="3" stroke-miterlimit="10" stroke-linecap="round" stroke-linejoin="round"/>
<path d="M180.842 59.5812C168.317 46.145 128.823 55.5918 126.457 74.0537C124.09 92.4984 107.988 71.6877 107.988 71.6877C107.988 71.6877 113.741 101.634 95.9815 91.6867C79.5345 82.4816 50.8388 115.554 61.3773 129.301C61.2045 129.785 61.1008 130.044 61.1008 130.044" stroke="black" stroke-width="3" stroke-miterlimit="10" stroke-linecap="round" stroke-linejoin="round"/>
<path d="M84.7578 608.224L117.634 607.74" stroke="black" stroke-width="3" stroke-miterlimit="10" stroke-linecap="round" stroke-linejoin="round"/>
<path d="M379.004 727.493C360.156 701.087 393.602 656.305 410.896 659.897" stroke="black" stroke-width="3" stroke-miterlimit="10" stroke-linecap="round" stroke-linejoin="round"/>
<path d="M402.516 736.939C434.874 734.659 448.142 680.362 434.356 669.309" stroke="black" stroke-width="3" stroke-miterlimit="10" stroke-linecap="round" stroke-linejoin="round"/>
<path d="M451.044 52L412.57 133.809L511.407 176.899" stroke="black" stroke-width="3" stroke-miterlimit="10" stroke-linecap="round" stroke-linejoin="round"/>
<path d="M447.865 147.902C447.865 147.902 459.838 115.037 425.977 107.369" stroke="black" stroke-width="3" stroke-miterlimit="10" stroke-linecap="round" stroke-linejoin="round"/>
<path d="M33.846 460.632L13.9784 461.358L12.4062 405.333L28.0412 405.748" stroke="black" stroke-width="3" stroke-miterlimit="10" stroke-linecap="round" stroke-linejoin="round"/>
<path d="M44.3516 404.85L64.2364 404.245L65.5149 460.253L49.8627 459.769" stroke="black" stroke-width="3" stroke-miterlimit="10" stroke-linecap="round" stroke-linejoin="round"/>
<path d="M178.544 428.838C179.252 429.183 193.246 435.314 197.807 434.433C202.368 433.553 203.94 411.671 197.634 413.605C191.328 415.522 184.677 421.481 180.479 422.016C176.281 422.534 171.398 423.048 171.398 423.048L178.544 428.838Z" fill="black" stroke="black" stroke-width="3" stroke-miterlimit="10" stroke-linecap="round" stroke-linejoin="round"/>
<path d="M270.38 584.978C273.922 587.137 292.563 591.455 296.104 592.232C299.646 593.009 301.201 592.232 301.201 592.232C301.201 592.232 300.216 586.74 294.722 583.787C289.228 580.851 259.375 570.834 259.375 570.834L270.38 584.978Z" fill="black"/>
<path d="M353.035 597.551C353.035 597.551 343.032 601.678 336.743 602.455C330.455 603.233 308.86 601.471 305.923 597.551L299.375 585.358C302.675 586.636 306.044 587.948 308.29 589.33C312.47 591.869 313.576 591.506 314.302 588.777C315.027 586.049 317.394 583.683 319.571 584.425C321.748 585.151 326.481 589.883 330.299 588.415C334.117 586.964 336.674 583.32 340.665 586.411C343.326 588.449 346.038 588.432 347.956 587.638C348.578 588.95 349.113 590.038 349.597 590.729C349.597 590.746 349.614 590.746 349.614 590.763C351.48 594.425 353.035 597.551 353.035 597.551Z" fill="black" stroke="black" stroke-width="3" stroke-miterlimit="10"/>
<path d="M349.597 590.729C349.079 589.71 348.561 588.64 348.008 587.604" stroke="black" stroke-width="3" stroke-miterlimit="10" stroke-linecap="round" stroke-linejoin="round"/>
<path d="M197.539 755.591C211.913 758.32 243.269 761.86 260.424 760.064C274.798 758.561 294.303 760.686 299.296 760.064C304.289 759.442 305.913 760.271 305.913 760.271C305.913 760.271 308.729 763.777 293.18 763.984C277.631 764.191 198.368 762.309 198.368 762.309L197.539 755.591Z" fill="black" stroke="black" stroke-width="3" stroke-miterlimit="10"/>
<path d="M220.576 633.87C220.576 633.87 234.034 633.179 246.957 634.561C259.862 635.942 282.77 637.479 282.77 637.479L219.781 638.55L220.576 633.87Z" fill="black" stroke="black" stroke-width="3" stroke-miterlimit="10"/>
</g>
<defs>
<clipPath id="clip0_131_5">
<rect width="531" height="780" fill="white" transform="translate(11 9)"/>
</clipPath>
</defs>
</svg>
