<svg width="634" height="615" viewBox="0 0 634 615" fill="none" xmlns="http://www.w3.org/2000/svg">
<path d="M410.5 493.5H439L410.5 527V493.5Z" fill="#3DACEF"/>
<path d="M407 493.5L401.5 528L383 493.5H407Z" fill="#3DACEF"/>
<path d="M269.871 542L315 581H275L269.871 542Z" fill="#3DACEF"/>
<path d="M413.5 51L270 536L173 115.5L413.5 51Z" fill="#3DACEF"/>
<path d="M426.5 253.5C451.5 368 496.5 349.312 513.5 344C609.5 314 513.167 199.167 496.5 176V241.5L473 211.5L461 253.5" stroke="black" stroke-width="20"/>
<path d="M144 500.5C144 500.5 351.5 283.5 379.5 294C407.5 304.5 424 381 424 381" stroke="black" stroke-width="20"/>
</svg>
